<?xml version="1.0" encoding="utf-8"?>
<!-- Generator: Adobe Illustrator 15.1.0, SVG Export Plug-In . SVG Version: 6.00 Build 0)  -->
<!DOCTYPE svg PUBLIC "-//W3C//DTD SVG 1.1//EN" "http://www.w3.org/Graphics/SVG/1.1/DTD/svg11.dtd">
<svg version="1.1" id="Layer_1" xmlns="http://www.w3.org/2000/svg" xmlns:xlink="http://www.w3.org/1999/xlink" x="0px" y="0px"
	 width="317.608px" height="69.396px" viewBox="0 0 317.608 69.396" enable-background="new 0 0 317.608 69.396"
	 xml:space="preserve">
<g>
	<g>
		<path fill="#D54C31" d="M156.502,43.427c-0.711,0-1.33-0.114-1.856-0.345v-1.174c0.593,0.277,1.13,0.415,1.609,0.415
			c0.685,0,1.027-0.231,1.027-0.691c0-0.105-0.016-0.194-0.045-0.266c-0.03-0.073-0.095-0.141-0.192-0.208
			c-0.099-0.066-0.182-0.115-0.253-0.148c-0.068-0.032-0.206-0.091-0.414-0.172c-0.206-0.083-0.37-0.151-0.488-0.203
			c-0.375-0.171-0.675-0.39-0.899-0.657c-0.223-0.266-0.335-0.633-0.335-1.101c0-0.579,0.194-1.016,0.583-1.312
			c0.387-0.297,0.908-0.444,1.561-0.444c0.532,0,1.045,0.092,1.539,0.276v1.146c-0.461-0.217-0.94-0.326-1.44-0.326
			c-0.599,0-0.899,0.208-0.899,0.623c0,0.19,0.069,0.334,0.207,0.429c0.139,0.096,0.392,0.212,0.761,0.352
			c0.079,0.039,0.212,0.102,0.399,0.187s0.327,0.15,0.414,0.198c0.09,0.046,0.203,0.122,0.343,0.227
			c0.138,0.105,0.241,0.212,0.31,0.32c0.069,0.109,0.13,0.252,0.183,0.43c0.053,0.178,0.079,0.379,0.079,0.603
			c0,0.579-0.204,1.031-0.612,1.357C157.673,43.264,157.148,43.427,156.502,43.427z"/>
		<path fill="#D54C31" d="M161.725,43.427c-0.765,0-1.345-0.232-1.742-0.696c-0.398-0.464-0.598-1.064-0.598-1.802
			c0-0.704,0.202-1.298,0.607-1.782c0.404-0.483,0.984-0.726,1.741-0.726c0.766,0,1.345,0.233,1.737,0.695
			c0.396,0.465,0.594,1.069,0.594,1.812c0,0.698-0.202,1.289-0.607,1.773C163.053,43.185,162.476,43.427,161.725,43.427z
			 M161.734,42.44c0.646,0,0.969-0.503,0.969-1.511c0-1.021-0.326-1.53-0.978-1.53c-0.645,0-0.968,0.51-0.968,1.53
			C160.757,41.937,161.083,42.44,161.734,42.44z"/>
		<path fill="#D54C31" d="M165.289,43.349v-3.9h-0.74V38.5h0.74v-0.434c0-0.506,0.146-0.885,0.435-1.136
			c0.29-0.25,0.7-0.375,1.234-0.375c0.316,0,0.635,0.047,0.957,0.138v0.948c-0.27-0.059-0.477-0.087-0.621-0.087
			c-0.244,0-0.419,0.052-0.524,0.157c-0.104,0.106-0.158,0.28-0.158,0.524V38.5h1.116v0.948h-1.116v3.9H165.289z"/>
		<path fill="#D54C31" d="M170.245,43.427c-0.513,0-0.9-0.111-1.159-0.334c-0.26-0.225-0.391-0.59-0.391-1.097v-2.547h-0.662V38.5
			h0.692l0.227-1.273h1.066V38.5h1.104v0.948h-1.104v2.331c0,0.21,0.043,0.361,0.128,0.454c0.086,0.092,0.224,0.138,0.415,0.138
			c0.203,0,0.421-0.036,0.651-0.109v1.018C170.877,43.377,170.554,43.427,170.245,43.427z"/>
		<path fill="#D54C31" d="M173.167,43.349l-1.501-4.848h1.343l0.751,2.598c0.1,0.322,0.177,0.631,0.237,0.926h0.019
			c0.086-0.354,0.168-0.658,0.247-0.908l0.475-1.51l-0.346-1.106h1.343l0.729,2.626c0.106,0.368,0.182,0.668,0.229,0.897h0.02
			c0.02-0.084,0.051-0.23,0.094-0.439c0.042-0.208,0.08-0.373,0.114-0.498l0.641-2.587h1.283l-1.392,4.848h-1.471l-0.662-2.301
			h-0.02l-0.69,2.301H173.167z"/>
		<path fill="#D54C31" d="M183.049,43.427c-0.487,0-0.81-0.19-0.967-0.573c-0.113,0.166-0.28,0.302-0.504,0.41
			s-0.477,0.163-0.762,0.163c-0.466,0-0.84-0.12-1.119-0.36c-0.28-0.239-0.419-0.587-0.419-1.042c0-0.506,0.194-0.879,0.586-1.12
			c0.393-0.241,0.938-0.36,1.635-0.36c0.139,0,0.273,0.007,0.404,0.02v-0.326c0-0.283-0.067-0.484-0.202-0.607
			c-0.134-0.122-0.364-0.183-0.686-0.183c-0.415,0-0.834,0.082-1.255,0.247v-1.017c0.462-0.17,0.954-0.256,1.481-0.256
			c0.665,0,1.161,0.136,1.492,0.405c0.327,0.271,0.492,0.698,0.492,1.284v1.956c0,0.25,0.105,0.375,0.316,0.375
			c0.039,0,0.099-0.006,0.178-0.021v0.859C183.536,43.377,183.313,43.427,183.049,43.427z M181.232,42.489
			c0.271,0,0.494-0.089,0.672-0.267v-0.908c-0.052-0.013-0.154-0.019-0.307-0.019c-0.349,0-0.604,0.051-0.77,0.153
			c-0.164,0.103-0.246,0.265-0.246,0.489C180.582,42.306,180.798,42.489,181.232,42.489z"/>
		<path fill="#D54C31" d="M184.541,43.349V38.5h1.293v0.514c0.335-0.395,0.743-0.593,1.225-0.593c0.139,0,0.272,0.02,0.405,0.06
			v1.154c-0.159-0.039-0.331-0.059-0.515-0.059c-0.408,0-0.773,0.113-1.095,0.335v3.437H184.541z"/>
		<path fill="#D54C31" d="M190.277,43.427c-0.85,0-1.479-0.224-1.892-0.671c-0.41-0.446-0.616-1.057-0.616-1.826
			c0-0.718,0.201-1.314,0.607-1.792c0.404-0.477,0.969-0.716,1.692-0.716c0.725,0,1.249,0.212,1.574,0.637
			c0.326,0.425,0.488,0.963,0.488,1.615c0,0.165-0.008,0.315-0.028,0.454h-2.981c0.013,0.427,0.113,0.753,0.3,0.978
			c0.188,0.223,0.507,0.335,0.953,0.335c0.521,0,0.998-0.1,1.433-0.297v1.008C191.346,43.336,190.835,43.427,190.277,43.427z
			 M189.161,40.356h1.678v-0.049c0-0.25-0.067-0.466-0.201-0.646c-0.135-0.18-0.324-0.271-0.568-0.271
			c-0.256,0-0.466,0.083-0.627,0.251C189.281,39.81,189.187,40.048,189.161,40.356z"/>
		<path fill="#D54C31" d="M195.549,45.125V38.5h1.322v0.355c0.264-0.29,0.648-0.435,1.154-0.435c0.658,0,1.15,0.218,1.478,0.652
			c0.324,0.434,0.488,1.03,0.488,1.787c0,0.718-0.202,1.325-0.608,1.822c-0.404,0.497-0.949,0.745-1.633,0.745
			c-0.357,0-0.649-0.049-0.879-0.147v1.846H195.549z M197.474,42.411c0.743,0,1.114-0.497,1.114-1.492
			c0-0.479-0.078-0.843-0.236-1.09s-0.421-0.371-0.79-0.371c-0.275,0-0.506,0.079-0.69,0.237v2.606
			C197.049,42.374,197.25,42.411,197.474,42.411z"/>
		<path fill="#D54C31" d="M204.354,43.427c-0.486,0-0.81-0.19-0.967-0.573c-0.112,0.166-0.28,0.302-0.503,0.41
			c-0.225,0.108-0.478,0.163-0.761,0.163c-0.468,0-0.842-0.12-1.12-0.36c-0.28-0.239-0.42-0.587-0.42-1.042
			c0-0.506,0.195-0.879,0.587-1.12c0.392-0.241,0.937-0.36,1.635-0.36c0.138,0,0.272,0.007,0.403,0.02v-0.326
			c0-0.283-0.067-0.484-0.201-0.607c-0.135-0.122-0.365-0.183-0.687-0.183c-0.414,0-0.832,0.082-1.253,0.247v-1.017
			c0.46-0.17,0.953-0.256,1.48-0.256c0.665,0,1.161,0.136,1.491,0.405c0.328,0.271,0.492,0.698,0.492,1.284v1.956
			c0,0.25,0.105,0.375,0.316,0.375c0.039,0,0.099-0.006,0.178-0.021v0.859C204.841,43.377,204.618,43.427,204.354,43.427z
			 M202.538,42.489c0.271,0,0.494-0.089,0.671-0.267v-0.908c-0.052-0.013-0.153-0.019-0.306-0.019c-0.348,0-0.604,0.051-0.769,0.153
			c-0.165,0.103-0.248,0.265-0.248,0.489C201.886,42.306,202.104,42.489,202.538,42.489z"/>
		<path fill="#D54C31" d="M205.844,43.349V38.5h1.294v0.514c0.336-0.395,0.744-0.593,1.225-0.593c0.138,0,0.272,0.02,0.405,0.06
			v1.154c-0.158-0.039-0.33-0.059-0.515-0.059c-0.408,0-0.773,0.113-1.095,0.335v3.437H205.844z"/>
		<path fill="#D54C31" d="M212.726,43.427c-0.487,0-0.811-0.19-0.967-0.573c-0.112,0.166-0.28,0.302-0.504,0.41
			c-0.225,0.108-0.477,0.163-0.761,0.163c-0.467,0-0.84-0.12-1.12-0.36c-0.279-0.239-0.42-0.587-0.42-1.042
			c0-0.506,0.196-0.879,0.587-1.12c0.393-0.241,0.938-0.36,1.635-0.36c0.138,0,0.273,0.007,0.405,0.02v-0.326
			c0-0.283-0.067-0.484-0.203-0.607c-0.135-0.122-0.364-0.183-0.687-0.183c-0.414,0-0.832,0.082-1.253,0.247v-1.017
			c0.461-0.17,0.954-0.256,1.481-0.256c0.664,0,1.16,0.136,1.49,0.405c0.329,0.271,0.494,0.698,0.494,1.284v1.956
			c0,0.25,0.104,0.375,0.314,0.375c0.04,0,0.1-0.006,0.178-0.021v0.859C213.213,43.377,212.989,43.427,212.726,43.427z
			 M210.91,42.489c0.271,0,0.493-0.089,0.672-0.267v-0.908c-0.054-0.013-0.155-0.019-0.307-0.019c-0.349,0-0.604,0.051-0.77,0.153
			c-0.165,0.103-0.248,0.265-0.248,0.489C210.257,42.306,210.475,42.489,210.91,42.489z"/>
		<path fill="#D54C31" d="M216.686,43.349V38.5h1.293v0.386c0.401-0.31,0.846-0.465,1.332-0.465c1.061,0,1.591,0.569,1.591,1.708
			v3.219h-1.314v-3.021c0-0.297-0.057-0.515-0.172-0.657c-0.115-0.141-0.312-0.212-0.588-0.212c-0.275,0-0.549,0.104-0.818,0.307
			v3.584H216.686z"/>
		<path fill="#D54C31" d="M224.307,43.427c-0.85,0-1.479-0.224-1.891-0.671c-0.411-0.446-0.617-1.057-0.617-1.826
			c0-0.718,0.203-1.314,0.607-1.792c0.404-0.477,0.969-0.716,1.693-0.716c0.724,0,1.249,0.212,1.575,0.637
			c0.325,0.425,0.488,0.963,0.488,1.615c0,0.165-0.011,0.315-0.031,0.454h-2.979c0.013,0.427,0.113,0.753,0.3,0.978
			c0.188,0.223,0.506,0.335,0.953,0.335c0.52,0,0.997-0.1,1.432-0.297v1.008C225.376,43.336,224.867,43.427,224.307,43.427z
			 M223.192,40.356h1.678v-0.049c0-0.25-0.067-0.466-0.202-0.646c-0.136-0.18-0.324-0.271-0.567-0.271
			c-0.258,0-0.466,0.083-0.627,0.251C223.312,39.81,223.217,40.048,223.192,40.356z"/>
		<path fill="#D54C31" d="M228.828,45.283c-0.671,0-1.192-0.112-1.564-0.334c-0.372-0.224-0.558-0.531-0.558-0.919
			c0-0.244,0.088-0.456,0.262-0.637s0.383-0.317,0.627-0.411c-0.316-0.143-0.475-0.394-0.475-0.749c0-0.349,0.188-0.615,0.562-0.8
			c-0.507-0.309-0.76-0.76-0.76-1.353c0-0.494,0.181-0.893,0.544-1.199c0.361-0.306,0.852-0.459,1.471-0.459
			c0.237,0,0.506,0.026,0.81,0.079h1.64v0.85h-0.701c0.19,0.211,0.285,0.477,0.285,0.799c0,0.46-0.179,0.837-0.538,1.13
			c-0.358,0.293-0.854,0.439-1.484,0.439c-0.172,0-0.35-0.016-0.533-0.049c-0.112,0.085-0.169,0.182-0.169,0.286
			c0,0.165,0.138,0.257,0.414,0.277l0.989,0.049c1.098,0.046,1.647,0.5,1.647,1.362c0,0.52-0.22,0.923-0.656,1.208
			C230.202,45.141,229.598,45.283,228.828,45.283z M228.887,44.434c0.751,0,1.126-0.21,1.126-0.631c0-0.198-0.073-0.333-0.219-0.405
			c-0.143-0.073-0.396-0.116-0.76-0.128c-0.242-0.006-0.467-0.02-0.67-0.041c-0.322,0.159-0.485,0.37-0.485,0.633
			C227.879,44.243,228.216,44.434,228.887,44.434z M228.365,40.683c0.137,0.158,0.335,0.236,0.591,0.236
			c0.257,0,0.453-0.079,0.588-0.241c0.135-0.161,0.203-0.359,0.203-0.598c0-0.236-0.068-0.437-0.203-0.602s-0.331-0.247-0.588-0.247
			c-0.256,0-0.454,0.082-0.591,0.247c-0.139,0.165-0.208,0.366-0.208,0.602C228.157,40.325,228.226,40.525,228.365,40.683z"/>
		<path fill="#D54C31" d="M234.317,43.427c-0.763,0-1.344-0.232-1.742-0.696c-0.399-0.464-0.598-1.064-0.598-1.802
			c0-0.704,0.203-1.298,0.607-1.782c0.405-0.483,0.985-0.726,1.743-0.726c0.764,0,1.343,0.233,1.737,0.695
			c0.395,0.465,0.593,1.069,0.593,1.812c0,0.698-0.202,1.289-0.607,1.773C235.644,43.185,235.067,43.427,234.317,43.427z
			 M234.328,42.44c0.645,0,0.968-0.503,0.968-1.511c0-1.021-0.326-1.53-0.979-1.53c-0.646,0-0.967,0.51-0.967,1.53
			C233.35,41.937,233.676,42.44,234.328,42.44z M233.745,37.918l0.819-1.412h1.679l-1.373,1.412H233.745z"/>
		<path fill="#D54C31" d="M239.719,43.427c-0.805,0-1.413-0.213-1.827-0.641c-0.415-0.428-0.622-1.024-0.622-1.787
			c0-0.756,0.207-1.375,0.622-1.856c0.414-0.48,1.011-0.721,1.786-0.721c0.415,0,0.816,0.069,1.205,0.207v1.027
			c-0.336-0.152-0.694-0.227-1.076-0.227c-0.776,0-1.164,0.522-1.164,1.569c0,0.461,0.104,0.812,0.315,1.052
			c0.21,0.24,0.506,0.36,0.889,0.36c0.446,0,0.818-0.089,1.115-0.268v1.047C240.601,43.349,240.186,43.427,239.719,43.427z"/>
		<path fill="#D54C31" d="M242.639,37.849c-0.229,0-0.421-0.076-0.572-0.227c-0.15-0.152-0.227-0.333-0.227-0.543
			c0-0.211,0.076-0.39,0.227-0.538c0.151-0.148,0.343-0.222,0.572-0.222c0.225,0,0.412,0.074,0.564,0.222
			c0.15,0.147,0.227,0.326,0.227,0.538c0,0.21-0.076,0.391-0.227,0.543C243.051,37.772,242.864,37.849,242.639,37.849z
			 M241.968,43.349V38.5h1.333v4.848H241.968z"/>
		<path fill="#D54C31" d="M246.638,43.427c-0.763,0-1.345-0.232-1.743-0.696c-0.397-0.464-0.596-1.064-0.596-1.802
			c0-0.704,0.202-1.298,0.606-1.782c0.405-0.483,0.985-0.726,1.743-0.726c0.763,0,1.342,0.233,1.737,0.695
			c0.395,0.465,0.592,1.069,0.592,1.812c0,0.698-0.201,1.289-0.606,1.773C247.966,43.185,247.389,43.427,246.638,43.427z
			 M246.649,42.44c0.645,0,0.967-0.503,0.967-1.511c0-1.021-0.325-1.53-0.978-1.53c-0.646,0-0.967,0.51-0.967,1.53
			C245.671,41.937,245.997,42.44,246.649,42.44z"/>
		<path fill="#D54C31" d="M251.229,43.427c-0.652,0-1.179-0.091-1.579-0.276v-0.978c0.446,0.191,0.908,0.286,1.382,0.286
			c0.534,0,0.799-0.167,0.799-0.503c0-0.052-0.009-0.098-0.023-0.139c-0.018-0.039-0.044-0.075-0.079-0.108
			c-0.036-0.032-0.075-0.063-0.113-0.089c-0.041-0.026-0.096-0.053-0.169-0.079c-0.072-0.026-0.137-0.048-0.192-0.064
			s-0.136-0.042-0.237-0.074c-0.102-0.034-0.186-0.06-0.251-0.079c-0.757-0.25-1.135-0.728-1.135-1.432
			c0-0.494,0.166-0.862,0.498-1.105c0.332-0.245,0.792-0.366,1.376-0.366c0.495,0,0.913,0.066,1.255,0.198v0.998
			c-0.401-0.152-0.797-0.228-1.186-0.228c-0.467,0-0.7,0.138-0.7,0.415c0,0.139,0.055,0.244,0.168,0.316
			c0.111,0.072,0.338,0.157,0.682,0.256c0.414,0.119,0.746,0.289,0.996,0.513c0.251,0.224,0.377,0.556,0.377,0.997
			c0,0.487-0.171,0.866-0.509,1.136C252.248,43.292,251.795,43.427,251.229,43.427z"/>
		<path fill="#D54C31" d="M256.481,43.349V38.5h1.294v0.386c0.402-0.31,0.846-0.465,1.333-0.465c1.06,0,1.589,0.569,1.589,1.708
			v3.219h-1.312v-3.021c0-0.297-0.058-0.515-0.174-0.657c-0.114-0.141-0.311-0.212-0.586-0.212c-0.276,0-0.55,0.104-0.82,0.307
			v3.584H256.481z"/>
		<path fill="#D54C31" d="M265.346,43.427c-0.486,0-0.809-0.19-0.967-0.573c-0.112,0.166-0.28,0.302-0.504,0.41
			s-0.478,0.163-0.76,0.163c-0.468,0-0.841-0.12-1.12-0.36c-0.28-0.239-0.42-0.587-0.42-1.042c0-0.506,0.196-0.879,0.587-1.12
			c0.392-0.241,0.937-0.36,1.635-0.36c0.138,0,0.272,0.007,0.404,0.02v-0.326c0-0.283-0.067-0.484-0.203-0.607
			c-0.135-0.122-0.363-0.183-0.686-0.183c-0.415,0-0.833,0.082-1.254,0.247v-1.017c0.461-0.17,0.953-0.256,1.48-0.256
			c0.666,0,1.162,0.136,1.491,0.405c0.329,0.271,0.493,0.698,0.493,1.284v1.956c0,0.25,0.105,0.375,0.316,0.375
			c0.04,0,0.1-0.006,0.178-0.021v0.859C265.833,43.377,265.61,43.427,265.346,43.427z M263.53,42.489
			c0.271,0,0.495-0.089,0.672-0.267v-0.908c-0.052-0.013-0.154-0.019-0.306-0.019c-0.35,0-0.606,0.051-0.771,0.153
			c-0.165,0.103-0.248,0.265-0.248,0.489C262.877,42.306,263.096,42.489,263.53,42.489z"/>
		<path fill="#D54C31" d="M270.353,43.349l-1.502-4.848h1.345l0.749,2.598c0.099,0.322,0.179,0.631,0.237,0.926h0.021
			c0.085-0.354,0.166-0.658,0.246-0.908l0.474-1.51l-0.345-1.106h1.342l0.731,2.626c0.104,0.368,0.181,0.668,0.227,0.897h0.02
			c0.021-0.084,0.051-0.23,0.094-0.439c0.043-0.208,0.081-0.373,0.114-0.498l0.642-2.587h1.284l-1.394,4.848h-1.471l-0.66-2.301
			h-0.021l-0.691,2.301H270.353z"/>
		<path fill="#D54C31" d="M278.992,43.427c-0.85,0-1.48-0.224-1.892-0.671c-0.411-0.446-0.617-1.057-0.617-1.826
			c0-0.718,0.203-1.314,0.607-1.792c0.405-0.477,0.97-0.716,1.693-0.716s1.249,0.212,1.574,0.637
			c0.326,0.425,0.489,0.963,0.489,1.615c0,0.165-0.011,0.315-0.03,0.454h-2.98c0.012,0.427,0.113,0.753,0.3,0.978
			c0.188,0.223,0.506,0.335,0.953,0.335c0.52,0,0.997-0.1,1.433-0.297v1.008C280.06,43.336,279.55,43.427,278.992,43.427z
			 M277.875,40.356h1.678v-0.049c0-0.25-0.067-0.466-0.201-0.646c-0.136-0.18-0.325-0.271-0.568-0.271
			c-0.257,0-0.466,0.083-0.627,0.251C277.996,39.81,277.902,40.048,277.875,40.356z"/>
		<path fill="#D54C31" d="M283.7,43.427c-0.704,0-1.342-0.111-1.915-0.334v-6.458h1.324v2.221c0.275-0.29,0.657-0.435,1.145-0.435
			c0.671,0,1.169,0.227,1.49,0.677c0.323,0.451,0.484,1.038,0.484,1.761c0,0.731-0.219,1.341-0.657,1.832
			C285.133,43.182,284.511,43.427,283.7,43.427z M283.72,42.411c0.368,0,0.646-0.132,0.829-0.396
			c0.184-0.263,0.276-0.628,0.276-1.097c0-0.972-0.342-1.46-1.026-1.46c-0.277,0-0.507,0.079-0.69,0.237v2.637
			C283.287,42.385,283.491,42.411,283.72,42.411z"/>
	</g>
	<g>
		<g>
			<path fill-rule="evenodd" clip-rule="evenodd" fill="#D54C31" d="M162.772,32.726l-0.195-1.956
				c-0.781,0.343-1.855,0.586-2.83,0.586c-2.832,0-4.344-1.559-4.344-4.538c0-2.686,1.365-4.735,4.146-4.735
				c0.928,0,1.953,0.196,2.881,0.439l0.193-1.951c-0.877-0.245-1.902-0.342-2.828-0.342c-4.734,0-6.785,3.124-6.785,6.784
				c0,3.956,2.1,6.346,6.246,6.346C160.528,33.358,161.747,33.112,162.772,32.726z"/>
			<rect x="179.708" y="20.377" fill-rule="evenodd" clip-rule="evenodd" fill="#D54C31" width="2.295" height="12.788"/>
			<polygon fill-rule="evenodd" clip-rule="evenodd" fill="#D54C31" points="197.719,33.165 192.788,26.673 197.473,20.377 
				194.887,20.377 191.471,25.109 188.153,20.377 185.323,20.377 190.008,26.77 185.127,33.165 187.86,33.165 191.325,28.283 
				194.692,33.165 			"/>
			<path fill-rule="evenodd" clip-rule="evenodd" fill="#D54C31" d="M231.055,26.574c0-3.954-2.197-5.857-5.713-6.197v1.901
				c2.195,0.441,3.32,1.902,3.32,4.442c0,2.585-1.318,4.049-3.32,4.491v1.9C228.711,32.579,231.055,30.479,231.055,26.574z
				 M225.342,20.377c-0.389-0.052-0.779-0.052-1.168-0.052c-1.465,0-3.32,0.052-4.395,0.052v12.788c1.023,0,2.195,0.097,3.709,0.097
				c0.635,0,1.268-0.05,1.854-0.149v-1.9c-0.486,0.097-1.021,0.144-1.561,0.144c-0.586,0-1.367-0.047-1.758-0.097v-9.08
				c0.537-0.046,1.27-0.046,1.857-0.046c0.535,0,1.023,0.046,1.461,0.146V20.377z"/>
			<polygon fill-rule="evenodd" clip-rule="evenodd" fill="#D54C31" points="241.647,33.165 241.647,31.355 236.668,31.355 
				236.668,27.452 241.45,27.452 241.45,25.742 236.668,25.742 236.668,22.133 241.647,22.133 241.647,20.377 234.422,20.377 
				234.422,33.165 			"/>
			<rect x="251.063" y="20.377" fill-rule="evenodd" clip-rule="evenodd" fill="#D54C31" width="2.197" height="12.788"/>
			<path fill-rule="evenodd" clip-rule="evenodd" fill="#D54C31" d="M269.174,26.574c0-3.954-2.146-5.857-5.662-6.197v1.901
				c2.195,0.441,3.316,1.902,3.316,4.442c0,2.585-1.314,4.002-3.316,4.491v1.9C266.879,32.579,269.174,30.479,269.174,26.574z
				 M263.512,20.377c-0.391-0.052-0.781-0.052-1.174-0.052c-1.463,0-3.318,0.052-4.391,0.052v12.788
				c1.023,0,2.197,0.097,3.711,0.097c0.633,0,1.268-0.05,1.854-0.149v-1.9c-0.49,0.097-1.025,0.144-1.611,0.144
				c-0.535,0-1.316-0.047-1.709-0.097v-9.08c0.588-0.046,1.316-0.046,1.803-0.046c0.541,0,1.078,0.046,1.518,0.146V20.377z"/>
			<polygon fill-rule="evenodd" clip-rule="evenodd" fill="#D54C31" points="279.864,33.165 279.864,31.355 274.834,31.355 
				274.834,27.452 279.571,27.452 279.571,25.742 274.834,25.742 274.834,22.133 279.864,22.133 279.864,20.377 272.59,20.377 
				272.59,33.165 			"/>
			<rect x="283.815" y="20.377" fill-rule="evenodd" clip-rule="evenodd" fill="#D54C31" width="2.295" height="12.788"/>
			<path fill-rule="evenodd" clip-rule="evenodd" fill="#D54C31" d="M311.684,29.209c0-4.1-6.053-2.928-6.053-5.417
				c0-1.072,0.832-1.807,2.641-1.807c0.779,0,1.852,0.147,2.535,0.342l0.098-1.95c-0.732-0.101-1.758-0.197-2.539-0.197
				c-3.221,0-5.123,1.514-5.123,3.855c0,4.103,6.051,2.881,6.051,5.42c0,1.464-1.316,2.05-2.682,2.05
				c-1.125,0-2.152-0.196-2.932-0.536l-0.096,2.1c0.732,0.193,1.805,0.34,2.732,0.34C309.393,33.408,311.684,31.797,311.684,29.209z
				"/>
			<polygon fill-rule="evenodd" clip-rule="evenodd" fill="#D54C31" points="291.235,33.165 288.891,33.165 293.918,20.377 
				296.508,20.377 301.385,33.112 298.848,33.112 295.042,22.913 			"/>
			<polygon fill-rule="evenodd" clip-rule="evenodd" fill="#D54C31" points="201.329,33.165 198.987,33.165 204.014,20.377 
				206.602,20.377 211.483,33.112 208.995,33.112 205.137,22.913 			"/>
			<polygon fill-rule="evenodd" clip-rule="evenodd" fill="#D54C31" points="166.676,33.165 164.383,33.165 169.409,20.377 
				171.997,20.377 176.877,33.112 174.338,33.112 170.532,22.913 			"/>
		</g>
	</g>
	<path fill-rule="evenodd" clip-rule="evenodd" fill="#D54C31" d="M100.833,52.375h17.654c4.395-0.159,6.629-2.439,6.71-6.792
		v-21.81c-0.158-4.314-2.478-6.473-6.788-6.592h-17.576V7.555h23.527c6.229,0,10.862,5.553,10.862,10.826v32.593
		c0,5.275-4.431,10.868-10.862,10.868h-23.527V52.375z M89.128,17.182L76.464,34.398l12.664,17.977h11.704v9.467h-3.598H85.131
		l-14.3-20.653L56.773,61.842H43.952h-3.716v-9.668H51.54l13.062-17.657L51.62,16.983H40.236V7.555h8.229h8.309l14.099,20.172
		l14.26-20.172h8.071h3.037h4.593v9.627H89.128z M40.236,7.555v9.429H22.621c-4.395,0.159-6.631,2.436-6.712,6.829v21.771
		c0.2,4.313,2.478,6.51,6.83,6.591h17.497v9.668H16.749c-6.231,0-10.825-5.593-10.825-10.868V18.381
		c0-5.273,4.394-10.826,10.825-10.826H40.236z"/>
</g>
<rect fill="none" width="317.608" height="69.396"/>
</svg>
